# Blender 4.3.2
# www.blender.org
mtllib Door.mtl
o Cube
v -0.469982 0.021993 0.492747
v -0.469982 0.961956 0.492747
v 0.469982 0.961956 0.492747
v 0.469982 0.021993 0.492747
v -0.469982 0.021993 0.469405
v -0.469982 0.961956 0.469405
v 0.469982 0.961956 0.469405
v 0.469982 0.021993 0.469405
v 0.469982 0.154183 0.492747
v 0.469982 0.154183 0.469405
v -0.469982 0.828438 0.492747
v -0.469982 0.828438 0.469405
v -0.463755 0.991974 0.492747
v -0.500000 0.955729 0.492747
v -0.481878 0.987119 0.492747
v -0.495144 0.973852 0.492747
v -0.500000 0.955729 0.448798
v -0.463755 0.991974 0.448798
v -0.495144 0.973852 0.448798
v -0.481878 0.987119 0.448798
v 0.500000 0.955729 0.492747
v 0.463755 0.991974 0.492747
v 0.495144 0.973852 0.492747
v 0.481878 0.987119 0.492747
v 0.463755 0.991974 0.448798
v 0.500000 0.955729 0.448798
v 0.481878 0.987119 0.448798
v 0.495144 0.973852 0.448798
v 0.463755 -0.008026 0.492747
v 0.500000 0.028219 0.492747
v 0.481878 -0.003170 0.492747
v 0.495144 0.010097 0.492747
v 0.500000 0.028219 0.448798
v 0.463755 -0.008026 0.448798
v 0.495144 0.010097 0.448798
v 0.481878 -0.003170 0.448798
v -0.500000 0.028219 0.492747
v -0.463755 -0.008026 0.492747
v -0.495144 0.010097 0.492747
v -0.481878 -0.003170 0.492747
v -0.463755 -0.008026 0.448798
v -0.500000 0.028219 0.448798
v -0.481878 -0.003170 0.448798
v -0.495144 0.010097 0.448798
v -0.469982 0.021993 0.404848
v -0.469982 0.961956 0.404848
v 0.469982 0.961956 0.404848
v 0.469982 0.021993 0.404848
v -0.469982 0.021993 0.428190
v -0.469982 0.961956 0.428190
v 0.469982 0.961956 0.428190
v 0.469982 0.021993 0.428190
v 0.469982 0.154183 0.404848
v 0.469982 0.154183 0.428190
v -0.469982 0.828438 0.404848
v -0.469982 0.828438 0.428190
v -0.463755 0.991974 0.404848
v -0.500000 0.955729 0.404848
v -0.481878 0.987119 0.404848
v -0.495144 0.973852 0.404848
v 0.500000 0.955729 0.404848
v 0.463755 0.991974 0.404848
v 0.495144 0.973852 0.404848
v 0.481878 0.987119 0.404848
v 0.463755 -0.008026 0.404848
v 0.500000 0.028219 0.404848
v 0.481878 -0.003170 0.404848
v 0.495144 0.010097 0.404848
v -0.500000 0.028219 0.404848
v -0.463755 -0.008026 0.404848
v -0.495144 0.010097 0.404848
v -0.481878 -0.003170 0.404848
vn -0.0000 -0.0000 1.0000
vn 1.0000 -0.0000 -0.0000
vn -0.0000 1.0000 -0.0000
vn -0.0000 -1.0000 -0.0000
vn -1.0000 -0.0000 -0.0000
vn 0.6518 0.7584 -0.0000
vn -0.6511 -0.7590 -0.0000
vn -0.2588 0.9659 -0.0000
vn -0.7071 0.7071 -0.0000
vn -0.9659 0.2588 -0.0000
vn 0.2588 0.9659 -0.0000
vn 0.7071 0.7071 -0.0000
vn 0.9659 0.2588 -0.0000
vn 0.2588 -0.9659 -0.0000
vn 0.7071 -0.7071 -0.0000
vn 0.9659 -0.2588 -0.0000
vn -0.2588 -0.9659 -0.0000
vn -0.7071 -0.7071 -0.0000
vn -0.9659 -0.2588 -0.0000
vn -0.0000 -0.0000 -1.0000
vt 0.494126 0.505223
vt 0.478526 0.501987
vt 0.478526 0.019970
vt 0.494126 0.016734
vt 0.479721 0.835374
vt 0.008897 0.835374
vt 0.008897 0.850898
vt 0.479721 0.850898
vt 0.982615 0.016734
vt 0.998215 0.019970
vt 0.998215 0.501987
vt 0.982615 0.505223
vt 0.451765 0.990024
vt 0.008271 0.990024
vt 0.008271 0.976735
vt 0.451765 0.976735
vt 0.481049 0.010552
vt 0.487944 0.003657
vt 0.006736 0.000824
vt 0.441655 0.000824
vt 0.441655 0.506916
vt 1.487051 1.033200
vt 1.487051 0.746745
vt 1.497749 0.746745
vt 1.497749 1.033200
vt 1.487051 1.080078
vt 1.497749 1.080078
vt 0.979379 0.520823
vt 0.913917 0.505223
vt 0.004383 0.000886
vt 0.438586 0.506979
vt 0.004383 0.506979
vt 0.563514 0.016734
vt 0.472066 0.931754
vt 0.472066 0.902932
vt 0.480768 0.902932
vt 0.480768 0.931754
vt 0.487138 0.902932
vt 0.487138 0.931754
vt -0.000302 0.835374
vt -0.000302 0.850898
vt 0.497362 0.001134
vt 0.497362 0.520823
vt 0.487944 0.518299
vt 0.481049 0.511405
vt 0.026697 0.902932
vt 0.026697 0.931754
vt 0.017995 0.931754
vt 0.017995 0.902932
vt 0.011624 0.931754
vt 0.011624 0.902932
vt 0.995691 0.511405
vt 0.488921 0.850898
vt 0.488921 0.835374
vt 0.979379 0.001134
vt 0.988797 0.003658
vt 0.995691 0.010552
vt 0.988797 0.518299
s 0
usemtl Material.001
f 3/1/1 22/2/1 13/3/1 2/4/1
f 33/5/2 26/6/2 21/7/2 30/8/2
f 1/9/1 38/10/1 29/11/1 4/12/1
f 1/13/3 4/14/3 8/15/3 5/16/3
f 2/4/1 15/17/1 16/18/1
f 10/19/1 7/20/1 6/21/1
f 11/22/2 1/23/2 5/24/2 12/25/2
f 3/13/4 2/14/4 6/15/4 7/16/4
f 9/22/5 3/23/5 7/24/5 10/25/5
f 4/26/5 9/22/5 10/25/5 8/27/5
f 10/15/6 6/16/6 2/13/6 9/14/6
f 4/12/1 30/28/1 9/29/1
f 8/30/1 12/31/1 5/32/1
f 2/26/2 11/22/2 12/25/2 6/27/2
f 37/5/5 14/6/5 17/7/5 42/8/5
f 4/12/1 9/29/1 2/4/1 11/33/1
f 12/15/7 8/16/7 4/13/7 11/14/7
f 13/3/1 15/17/1 2/4/1
f 13/34/8 18/35/8 20/36/8 15/37/8
f 15/37/9 20/36/9 19/38/9 16/39/9
f 16/40/10 19/41/10 17/7/10 14/6/10
f 2/4/1 14/42/1 11/33/1
f 21/43/1 23/44/1 3/1/1
f 23/44/1 24/45/1 3/1/1
f 24/45/1 22/2/1 3/1/1
f 25/46/11 22/47/11 24/48/11 27/49/11
f 27/49/12 24/48/12 23/50/12 28/51/12
f 28/40/13 23/41/13 21/7/13 26/6/13
f 25/46/3 18/35/3 13/34/3 22/47/3
f 29/11/1 31/52/1 4/12/1
f 29/34/14 34/35/14 36/36/14 31/37/14
f 31/37/15 36/36/15 35/38/15 32/39/15
f 32/53/16 35/54/16 33/5/16 30/8/16
f 2/4/1 16/18/1 14/42/1
f 37/55/1 39/56/1 1/9/1
f 39/56/1 40/57/1 1/9/1
f 40/57/1 38/10/1 1/9/1
f 41/46/17 38/47/17 40/48/17 43/49/17
f 43/49/18 40/48/18 39/50/18 44/51/18
f 44/53/19 39/54/19 37/5/19 42/8/19
f 41/46/4 34/35/4 29/34/4 38/47/4
f 4/12/1 31/52/1 32/58/1
f 4/12/1 32/58/1 30/28/1
f 11/33/1 14/42/1 37/55/1 1/9/1
f 9/29/1 30/28/1 21/43/1 3/1/1
f 47/1/20 46/4/20 57/3/20 62/2/20
f 33/5/2 66/8/2 61/7/2 26/6/2
f 45/9/20 48/12/20 65/11/20 70/10/20
f 45/13/3 49/16/3 52/15/3 48/14/3
f 46/4/20 60/18/20 59/17/20
f 54/19/20 50/21/20 51/20/20
f 55/22/2 56/25/2 49/24/2 45/23/2
f 47/13/4 51/16/4 50/15/4 46/14/4
f 53/22/5 54/25/5 51/24/5 47/23/5
f 48/26/5 52/27/5 54/25/5 53/22/5
f 54/15/6 53/14/6 46/13/6 50/16/6
f 48/12/20 53/29/20 66/28/20
f 52/30/20 49/32/20 56/31/20
f 46/26/2 50/27/2 56/25/2 55/22/2
f 69/5/5 42/8/5 17/7/5 58/6/5
f 48/12/20 55/33/20 46/4/20 53/29/20
f 56/15/7 55/14/7 48/13/7 52/16/7
f 57/3/20 46/4/20 59/17/20
f 57/34/8 59/37/8 20/36/8 18/35/8
f 59/37/9 60/39/9 19/38/9 20/36/9
f 60/40/10 58/6/10 17/7/10 19/41/10
f 46/4/20 55/33/20 58/42/20
f 61/43/20 47/1/20 63/44/20
f 63/44/20 47/1/20 64/45/20
f 64/45/20 47/1/20 62/2/20
f 25/46/11 27/49/11 64/48/11 62/47/11
f 27/49/12 28/51/12 63/50/12 64/48/12
f 28/40/13 26/6/13 61/7/13 63/41/13
f 25/46/3 62/47/3 57/34/3 18/35/3
f 65/11/20 48/12/20 67/52/20
f 65/34/14 67/37/14 36/36/14 34/35/14
f 67/37/15 68/39/15 35/38/15 36/36/15
f 68/53/16 66/8/16 33/5/16 35/54/16
f 46/4/20 58/42/20 60/18/20
f 69/55/20 45/9/20 71/56/20
f 71/56/20 45/9/20 72/57/20
f 72/57/20 45/9/20 70/10/20
f 41/46/17 43/49/17 72/48/17 70/47/17
f 43/49/18 44/51/18 71/50/18 72/48/18
f 44/53/19 42/8/19 69/5/19 71/54/19
f 41/46/4 70/47/4 65/34/4 34/35/4
f 48/12/20 68/58/20 67/52/20
f 48/12/20 66/28/20 68/58/20
f 55/33/20 45/9/20 69/55/20 58/42/20
f 53/29/20 47/1/20 61/43/20 66/28/20
