# Blender 4.3.2
# www.blender.org
mtllib ItemChest.mtl
o Cube
v -0.054721 0.302561 -0.131562
v 0.054721 0.302561 -0.131562
v -0.054721 0.302561 0.131562
v 0.054721 0.302561 0.131562
v 0.054721 0.256969 -0.187225
v -0.054721 0.256969 -0.187225
v -0.054721 0.256969 0.187225
v 0.054721 0.256969 0.187225
v -0.054721 -0.004140 0.187225
v 0.054721 -0.004140 0.187225
v 0.054721 -0.004140 -0.187225
v -0.054721 -0.004140 -0.187225
v -0.361707 -0.004140 0.160758
v -0.310576 -0.004140 0.187225
v -0.361707 -0.004140 -0.160758
v -0.310576 -0.004140 -0.187225
v 0.361707 -0.004140 0.160758
v 0.310576 -0.004140 0.187225
v 0.361707 -0.004140 -0.160758
v 0.310576 -0.004140 -0.187225
v -0.361707 0.247990 0.160758
v -0.310576 0.256969 0.187225
v -0.361707 0.280884 0.120599
v -0.310576 0.302561 0.131562
v -0.361707 0.280884 -0.120599
v -0.310576 0.302561 -0.131562
v -0.361707 0.247990 -0.160758
v -0.310576 0.256969 -0.187225
v 0.361707 0.280884 0.120599
v 0.310576 0.302561 0.131562
v 0.361707 0.247990 0.160758
v 0.310576 0.256969 0.187225
v 0.361707 0.247990 -0.160758
v 0.310576 0.256969 -0.187225
v 0.361707 0.280884 -0.120599
v 0.310576 0.302561 -0.131562
v -0.054721 0.321548 0.152833
v -0.054721 0.268585 0.217496
v -0.054721 0.268585 -0.217496
v -0.054721 -0.004140 -0.217496
v 0.054721 0.268585 0.217496
v 0.054721 -0.004140 0.217496
v 0.054721 0.321548 0.152833
v 0.054721 0.268585 -0.217496
v 0.054721 0.321548 -0.152833
v -0.054721 0.321548 -0.152833
v 0.054721 -0.004140 -0.217496
v -0.054721 -0.004140 0.217496
v -0.368679 -0.004140 -0.171450
v -0.331231 -0.004140 -0.199676
v -0.331231 -0.004140 0.199676
v -0.368679 -0.004140 0.171450
v 0.366263 -0.004140 0.171450
v 0.331231 -0.004140 0.199676
v 0.331231 -0.004140 -0.199676
v 0.366263 -0.004140 -0.171450
v -0.331231 0.262087 -0.199676
v -0.368679 0.252511 -0.171450
v -0.368679 0.287592 -0.128620
v -0.331231 0.310711 -0.140311
v 0.331231 0.310711 -0.140311
v 0.366263 0.287592 -0.128620
v 0.366263 0.252511 -0.171450
v 0.331231 0.262087 -0.199676
v 0.331231 0.262087 0.199676
v 0.366263 0.252511 0.171450
v 0.366263 0.287592 0.128620
v 0.331231 0.310711 0.140311
v -0.331231 0.310711 0.140311
v -0.368679 0.287592 0.128620
v -0.368679 0.252511 0.171450
v -0.331231 0.262087 0.199676
vn -0.0000 0.7736 -0.6337
vn -0.0000 0.7736 0.6337
vn -0.0000 -0.0000 -1.0000
vn -0.0000 -0.0000 1.0000
vn 1.0000 -0.0000 -0.0000
vn -0.0000 1.0000 -0.0000
vn -1.0000 -0.0000 -0.0000
vn 0.9200 -0.0000 0.3920
vn -0.4976 0.6710 0.5496
vn -0.8376 -0.0000 -0.5462
vn 0.4976 0.6710 -0.5496
vn -0.3670 0.9302 -0.0000
vn -0.5163 -0.0000 0.8564
vn 0.8273 -0.5618 -0.0000
vn 0.9141 -0.3136 -0.2569
vn -0.0000 0.7736 0.6336
vn -0.5597 0.6411 -0.5251
vn 0.5854 0.6272 -0.5137
vn 0.5854 0.6272 0.5137
vn -0.5597 0.6411 0.5251
vn 0.6274 -0.0000 0.7787
vn -0.6019 -0.0000 0.7986
vn -0.5253 0.8509 -0.0000
vn -0.6019 -0.0000 -0.7986
vn 0.5508 0.8346 -0.0000
vn 0.6274 -0.0000 -0.7787
vn 0.5163 -0.0000 0.8564
vn -0.5163 -0.0000 -0.8564
vn 0.9141 -0.3136 0.2569
vn 0.3670 0.9302 -0.0000
vn -0.8274 -0.4345 -0.3559
vn -0.6933 -0.7206 -0.0000
vn -0.4976 0.6710 -0.5496
vn 0.5163 -0.0000 -0.8564
vn 0.4976 0.6710 0.5496
vn -0.8376 -0.0000 0.5462
vn -0.8274 -0.4345 0.3558
vn 0.9200 -0.0000 -0.3920
vt 0.248582 0.700903
vt 0.004577 0.700897
vt 0.004582 0.655369
vt 0.248587 0.655375
vt 0.248619 0.394631
vt 0.004613 0.394625
vt 0.692105 0.004286
vt 0.692105 0.255850
vt 0.659258 0.288670
vt 0.018944 0.285503
vt 0.064434 0.331031
vt 0.052845 0.355791
vt -0.000000 0.302902
vt 0.493536 0.607616
vt 0.260704 0.607616
vt 0.260704 0.392400
vt 0.493536 0.392400
vt 0.692584 0.004885
vt 0.692584 0.256205
vt 0.429607 0.004885
vt 0.004582 0.655369
vt 0.004613 0.394625
vt 0.064434 0.024760
vt 0.018944 0.070288
vt -0.000000 0.052889
vt 0.052845 0.000000
vt 0.585976 0.649318
vt 0.837540 0.649318
vt 0.837620 0.658063
vt 0.581545 0.658063
vt 0.489603 0.640206
vt 0.542145 0.695419
vt 0.536439 0.707354
vt 0.480402 0.648468
vt 0.461976 0.288670
vt 0.586228 0.649318
vt 0.837548 0.649318
vt 0.837370 0.658063
vt 0.489259 0.640146
vt 0.541846 0.695369
vt 0.535082 0.707277
vt 0.478998 0.648382
vt 0.972707 0.976294
vt 0.972707 0.657471
vt 0.959752 0.646869
vt 0.959752 0.986896
vt 0.850434 0.702782
vt 0.850770 0.714860
vt 0.553156 0.419189
vt 0.553156 0.616471
vt 0.546542 0.623031
vt 0.546543 0.412628
vt 0.585976 0.386341
vt 0.581545 0.377596
vt 0.429128 0.255850
vt 0.429128 0.004286
vt 0.324957 0.331031
vt 0.324957 0.355791
vt 0.004577 0.700897
vt 0.064371 0.024760
vt 0.018926 0.070288
vt -0.000000 0.052889
vt 0.052793 0.000000
vt 0.650579 0.994526
vt 0.003769 0.994526
vt 0.003769 0.781764
vt 0.650579 0.781763
vt 0.597545 0.781763
vt 0.597545 0.994526
vt 0.003769 0.994526
vt 0.997879 0.187087
vt 0.757000 0.187087
vt 0.757000 -0.000725
vt 0.997879 -0.000725
vt 0.018926 0.285503
vt 0.064371 0.331031
vt 0.052793 0.355791
vt -0.000000 0.302902
vt 0.324641 0.024760
vt 0.324641 0.000000
vt 0.324641 0.331031
vt 0.324641 0.355791
vt 0.324957 0.024760
vt 0.324957 0.000000
vt 0.546577 0.412628
vt 0.524486 0.403065
vt 0.572954 0.354509
vt 0.571381 0.681150
vt 0.522866 0.632594
vt 0.522866 0.403065
vt 0.571381 0.354509
vt 0.546577 0.623031
vt 0.572954 0.681150
vt 0.524486 0.632594
vt 0.837620 0.377596
vt 0.837011 0.354509
vt 0.838326 0.681150
vt 0.838326 0.354509
vt 0.837371 0.377596
vt 0.837010 0.681150
vt 0.850434 0.702781
vt 0.541846 0.695369
vt 0.849719 0.714835
vt 0.542145 0.695419
vt 0.536439 0.707354
vt 0.850770 0.714860
vt 0.553441 0.616471
vt 0.553441 0.419189
vt 0.489603 0.640206
vt 0.480402 0.648468
vt 0.489259 0.640146
vt 0.478998 0.648382
vt 0.837548 0.386341
vt 0.586228 0.386341
vt 0.837540 0.386341
vt 0.659736 0.288992
vt 0.462454 0.288992
vt 0.429607 0.256205
s 0
usemtl Material.001
f 2/1/1 36/2/1 34/3/1 5/4/1
f 3/1/2 24/2/2 22/3/2 7/4/2
f 11/5/3 5/4/3 34/3/3 20/6/3
f 9/5/4 7/4/4 22/3/4 14/6/4
f 19/7/5 33/8/5 35/9/5
f 2/10/5 5/11/5 44/12/5 45/13/5
f 1/14/6 26/15/6 24/16/6 3/17/6
f 13/18/7 21/19/7 15/20/7
f 18/5/4 32/4/4 8/21/4 10/22/4
f 8/23/5 4/24/5 43/25/5 41/26/5
f 33/27/8 19/28/8 56/29/8 63/30/8
f 30/31/9 32/32/9 65/33/9 68/34/9
f 35/9/5 29/35/5 19/7/5
f 21/36/10 13/37/10 52/38/10 71/30/10
f 26/39/11 28/40/11 57/41/11 60/42/11
f 36/43/12 30/44/12 68/45/12 61/46/12
f 32/32/13 18/47/13 54/48/13 65/33/13
f 29/49/14 35/50/14 62/51/14 67/52/14
f 31/53/15 29/49/15 67/52/15 66/54/15
f 19/7/5 31/55/5 17/56/5
f 36/14/6 2/15/6 4/16/6 30/17/6
f 16/5/3 28/4/3 6/21/3 12/22/3
f 5/11/5 11/57/5 47/58/5 44/12/5
f 30/1/2 4/59/2 8/21/2 32/4/2
f 26/1/1 1/59/1 6/21/1 28/4/1
f 6/60/7 1/61/7 46/62/7 39/63/7
f 42/64/4 41/65/4 38/66/4 48/67/4
f 45/68/6 46/69/6 37/70/6 43/66/6
f 40/64/3 39/65/3 44/66/3 47/67/3
f 43/71/16 37/72/16 38/73/16 41/74/16
f 46/71/1 45/72/1 44/73/1 39/74/1
f 4/24/5 2/10/5 45/13/5 43/25/5
f 3/75/7 7/76/7 38/77/7 37/78/7
f 12/79/7 6/60/7 39/63/7 40/80/7
f 7/76/7 9/81/7 48/82/7 38/77/7
f 1/61/7 3/75/7 37/78/7 46/62/7
f 10/83/5 8/23/5 41/26/5 42/84/5
f 58/54/17 59/85/17 60/86/17 57/87/17
f 62/51/18 63/30/18 64/88/18 61/89/18
f 66/54/19 67/52/19 68/90/19 65/91/19
f 70/92/20 71/30/20 72/93/20 69/94/20
f 53/95/21 66/54/21 65/91/21 54/96/21
f 71/30/22 52/38/22 51/97/22 72/93/22
f 69/94/23 60/86/23 59/85/23 70/92/23
f 57/87/24 50/98/24 49/99/24 58/54/24
f 67/52/25 62/51/25 61/89/25 68/90/25
f 63/30/26 56/29/26 55/100/26 64/88/26
f 14/101/27 22/102/27 72/41/27 51/103/27
f 20/101/28 34/104/28 64/105/28 55/106/28
f 35/50/29 33/27/29 63/30/29 62/51/29
f 24/44/30 26/43/30 60/46/30 69/45/30
f 29/35/5 31/55/5 19/7/5
f 23/107/31 21/36/31 71/30/31 70/92/31
f 25/108/32 23/107/32 70/92/32 59/85/32
f 34/104/33 36/109/33 61/110/33 64/105/33
f 28/40/34 16/47/34 50/103/34 57/41/34
f 22/102/35 24/111/35 69/112/35 72/41/35
f 15/113/36 27/114/36 58/54/36 49/99/36
f 27/114/37 25/108/37 59/85/37 58/54/37
f 17/115/38 31/53/38 66/54/38 53/95/38
f 15/20/7 23/116/7 25/117/7
f 15/20/7 21/19/7 23/116/7
f 25/117/7 27/118/7 15/20/7
